<?xml version="1.0" standalone="no"?>
<!DOCTYPE svg PUBLIC "-//W3C//DTD SVG 20010904//EN"
 "http://www.w3.org/TR/2001/REC-SVG-20010904/DTD/svg10.dtd">
<svg version="1.0" xmlns="http://www.w3.org/2000/svg"
 width="500.000000pt" height="500.000000pt" viewBox="0 0 500.000000 500.000000"
 preserveAspectRatio="xMidYMid meet">

<g transform="translate(0.000000,500.000000) scale(0.100000,-0.100000)"
fill="#000000" stroke="none">
<path d="M1775 3479 c-58 -17 -202 -39 -365 -54 -91 -9 -173 -18 -183 -21 -10
-3 -20 -19 -24 -35 -4 -20 -11 -29 -25 -29 -31 0 -73 -27 -86 -54 -6 -13 -16
-51 -23 -84 -11 -52 -10 -63 7 -98 10 -21 38 -52 62 -68 l42 -30 80 15 c51 10
77 12 71 5 -4 -6 -37 -47 -73 -92 -83 -104 -246 -348 -252 -377 -25 -134 -24
-131 -6 -173 37 -85 110 -93 563 -61 131 9 261 17 288 17 l49 0 0 -405 0 -405
90 0 90 0 2 376 3 376 119 49 c125 51 299 106 429 134 125 27 140 59 139 295
0 63 -21 120 -54 147 -13 10 -29 40 -36 66 -10 41 -10 51 4 72 16 24 17 24 47
8 19 -10 69 -19 122 -22 l90 -6 -5 -135 c-3 -74 -5 -202 -4 -285 0 -131 3
-156 21 -197 23 -51 65 -84 120 -94 18 -3 33 -13 35 -21 2 -12 18 -3 60 31 87
71 92 94 88 477 l-2 247 52 11 c28 6 59 11 68 11 9 1 33 7 53 14 l37 13 7 -65
c7 -64 6 -65 -28 -101 -43 -45 -57 -71 -57 -108 0 -38 32 -89 68 -107 l29 -15
5 -140 5 -140 33 -38 c18 -21 42 -44 53 -52 27 -20 90 -17 129 5 51 30 69 79
80 218 15 192 13 186 52 186 l33 0 6 -179 c4 -120 11 -191 20 -214 45 -105
175 -101 226 8 16 33 25 87 36 207 14 149 17 165 39 183 37 31 67 110 65 174
0 31 2 72 6 91 8 41 -21 87 -58 92 -21 3 -22 7 -27 148 -6 157 -13 181 -62
201 -39 16 -81 3 -120 -39 -19 -20 -49 -45 -67 -54 -51 -28 -75 -93 -66 -183
l6 -72 -32 -7 c-42 -8 -48 3 -50 79 -1 117 -14 217 -29 229 -8 6 -20 20 -26
31 -13 24 -55 41 -79 31 -9 -3 -22 -20 -28 -36 -12 -33 -36 -41 -38 -12 -1 11
-4 9 -9 -8 l-8 -25 -1 27 c-1 15 -6 30 -11 33 -6 4 -8 16 -4 27 6 20 3 21 -42
15 -124 -16 -419 -29 -566 -25 -166 4 -165 -4 2 -22 75 -8 69 -8 -51 -4 -126
5 -138 3 -160 -15 -55 -46 -87 -71 -93 -71 -3 0 -6 9 -6 20 0 12 -12 26 -32
36 -26 14 -40 15 -77 6 -26 -6 -131 -31 -236 -56 -104 -25 -223 -56 -264 -70
-41 -14 -75 -25 -75 -23 -34 95 -35 98 -15 118 10 10 19 23 19 27 0 22 -31 43
-89 62 -71 22 -65 22 -106 9z m43 -139 c9 -5 29 -11 44 -15 19 -3 30 -14 34
-31 6 -23 -4 -37 -78 -112 -102 -105 -255 -274 -361 -403 -60 -71 -64 -77 -16
-24 119 132 332 344 341 339 4 -3 8 -9 8 -15 0 -5 -69 -80 -153 -167 -160
-165 -319 -343 -313 -350 3 -2 53 1 113 7 59 6 187 14 283 18 l176 6 -18 176
c-9 97 -24 197 -33 222 -27 79 6 125 115 162 90 31 522 137 557 137 13 0 35
-11 49 -25 20 -20 25 -34 22 -63 l-3 -37 -205 -61 c-113 -34 -238 -74 -277
-89 -71 -26 -73 -28 -73 -61 0 -22 5 -34 14 -34 7 0 61 20 121 45 168 71 337
109 389 89 21 -8 76 -90 76 -113 0 -43 -31 -60 -155 -85 -137 -28 -262 -69
-352 -115 l-63 -31 0 -50 0 -50 38 16 c213 90 452 174 497 174 64 0 115 -81
115 -181 -1 -70 -17 -81 -169 -118 -123 -30 -275 -81 -426 -145 -72 -31 -143
-34 -152 -8 -12 33 -45 62 -67 57 -23 -5 -418 -31 -606 -40 -108 -5 -112 -4
-75 9 50 18 39 19 -42 5 -80 -14 -107 -7 -123 31 -10 25 -10 34 4 55 12 18 14
31 7 42 -5 10 -5 26 0 41 26 68 296 431 402 540 23 23 37 42 31 42 -6 0 -68
-13 -140 -30 -71 -16 -139 -30 -150 -30 -32 0 -84 53 -84 85 0 44 21 113 37
119 8 3 85 13 171 21 170 17 319 39 367 54 32 11 95 6 123 -9z m1677 1 c-3
-11 -1 -22 5 -26 15 -9 12 -61 -5 -75 -8 -7 -15 -21 -15 -32 0 -10 -11 -29
-24 -42 -23 -24 -54 -33 -200 -57 l-69 -12 6 -321 c5 -277 3 -326 -10 -356
-15 -34 -16 -34 -22 -11 l-6 24 -12 -26 c-25 -53 -97 -45 -130 15 -16 29 -18
60 -17 263 0 127 3 267 7 311 l7 81 -102 7 c-136 9 -159 18 -209 78 -47 55
-54 95 -24 128 15 16 32 20 89 21 71 1 71 1 23 9 -27 5 -50 10 -52 12 -2 2
114 4 258 5 144 1 294 6 332 11 39 5 94 10 123 11 48 1 53 -1 47 -18z m166
-11 c10 -6 19 -16 19 -23 0 -7 9 -20 19 -29 21 -17 26 -49 36 -218 l6 -95 101
9 100 10 -7 146 -7 146 32 27 c38 33 87 35 123 7 33 -26 47 -92 47 -226 l0
-105 30 -11 c35 -12 50 -35 50 -77 0 -48 -40 -111 -70 -111 -16 0 -19 -15 -25
-112 -14 -251 -26 -299 -81 -334 -24 -16 -27 -16 -52 3 -31 23 -39 67 -41 228
-1 55 -4 130 -8 168 l-6 67 -81 0 c-45 0 -86 -4 -92 -8 -7 -4 -13 -67 -17
-167 -3 -88 -11 -175 -17 -193 -23 -61 -105 -80 -131 -29 -7 12 -17 25 -24 29
-9 5 -15 59 -20 173 l-7 165 -34 0 c-23 0 -37 6 -44 19 -19 36 -11 63 31 103
l42 40 -5 190 c-3 110 -2 184 3 175 5 -8 17 -96 27 -194 20 -207 29 -178 12
41 -10 130 -9 151 5 172 17 26 52 31 86 14z m-1252 -35 c-3 -2 -88 -25 -190
-49 -159 -39 -273 -72 -343 -101 -13 -6 -17 -5 -12 3 8 14 139 64 253 97 114
34 308 67 292 50z m-594 -461 l11 -112 -66 -6 c-36 -3 -105 -8 -155 -12 l-90
-6 30 34 c16 18 77 81 134 140 89 91 107 105 115 91 5 -9 14 -68 21 -129z"/>
<path d="M1327 3145 c-33 -7 -66 -20 -75 -29 -21 -21 -13 -20 88 14 90 30 84
36 -13 15z"/>
<path d="M2178 2813 c-48 -14 -78 -29 -78 -38 0 -10 23 -3 83 22 120 52 119
56 -5 16z"/>
<path d="M1320 2620 c-29 -34 -51 -62 -49 -65 2 -2 28 25 57 61 66 81 61 83
-8 4z"/>
<path d="M2075 2374 c-37 -14 -51 -23 -37 -23 22 -1 102 34 102 44 0 3 -1 4
-2 4 -2 -1 -30 -12 -63 -25z"/>
<path d="M2868 3303 c12 -2 32 -2 45 0 12 2 2 4 -23 4 -25 0 -35 -2 -22 -4z"/>
<path d="M2770 3140 c8 -5 24 -10 34 -10 26 0 18 6 -19 14 -22 5 -26 4 -15 -4z"/>
<path d="M3778 2833 c23 -2 59 -2 80 0 20 2 1 4 -43 4 -44 0 -61 -2 -37 -4z"/>
<path d="M2310 3405 c-116 -23 -349 -100 -337 -111 2 -2 24 3 48 12 24 9 130
38 234 64 175 44 209 66 55 35z"/>
<path d="M1566 2249 c-61 -14 -103 -46 -126 -94 -20 -42 -21 -56 -18 -272 3
-212 5 -231 25 -269 27 -51 58 -72 127 -85 39 -8 68 -8 112 1 104 22 154 98
154 235 l0 45 -85 0 -85 0 0 -64 c0 -62 -14 -96 -40 -96 -5 0 -16 7 -24 16
-12 12 -16 38 -16 115 l0 99 125 0 125 0 0 108 c0 59 -5 125 -11 147 -26 94
-139 143 -263 114z m94 -138 c5 -11 10 -49 10 -85 l0 -66 -40 0 -40 0 0 73 c0
43 5 78 12 85 18 18 46 14 58 -7z"/>
<path d="M2282 2248 c-58 -13 -116 -69 -132 -127 -8 -30 -11 -111 -8 -245 3
-191 4 -204 28 -251 14 -27 40 -60 58 -72 43 -28 117 -37 187 -23 99 21 145
90 145 219 l0 62 -82 -3 -83 -3 -3 -67 c-2 -53 -7 -70 -21 -78 -13 -6 -24 -5
-37 5 -16 11 -19 27 -19 112 l0 98 123 3 122 3 0 120 c0 134 -10 170 -58 211
-30 25 -109 49 -155 47 -12 -1 -41 -5 -65 -11z m96 -130 c7 -7 12 -42 12 -85
l0 -73 -40 0 -40 0 0 63 c0 85 32 131 68 95z"/>
<path d="M3230 2251 c-137 -29 -166 -100 -157 -391 6 -197 15 -240 61 -286 59
-59 214 -68 286 -16 38 28 68 98 76 180 l7 72 -87 0 -86 0 0 -59 c0 -73 -23
-111 -57 -92 -24 12 -37 80 -31 166 l3 50 125 5 125 5 -1 120 c0 142 -18 191
-82 224 -43 22 -132 33 -182 22z m89 -152 c6 -18 11 -56 11 -85 l0 -54 -46 0
-46 0 4 69 c2 38 10 76 17 85 22 26 48 19 60 -15z"/>
<path d="M3800 2247 c-13 -7 -35 -28 -47 -46 l-23 -34 0 42 0 41 -85 0 -85 0
0 -360 0 -360 85 0 85 0 0 280 c0 268 1 281 20 300 16 16 25 18 40 10 19 -10
20 -22 20 -300 l0 -290 85 0 85 0 0 307 c0 289 -1 309 -20 349 -16 32 -31 46
-61 58 -47 19 -66 20 -99 3z"/>
<path d="M2610 2232 c0 -18 94 -617 106 -674 l6 -28 97 0 98 0 57 348 c31 191
56 353 56 360 0 8 -23 12 -84 12 l-83 0 -24 -222 -24 -223 -7 95 c-4 52 -14
151 -20 220 l-13 125 -82 3 c-76 3 -83 1 -83 -16z"/>
</g>
</svg>
