<?xml version="1.0" standalone="no"?>
<!DOCTYPE svg PUBLIC "-//W3C//DTD SVG 20010904//EN"
 "http://www.w3.org/TR/2001/REC-SVG-20010904/DTD/svg10.dtd">
<svg version="1.0" xmlns="http://www.w3.org/2000/svg"
 width="500.000000pt" height="500.000000pt" viewBox="0 0 500.000000 500.000000"
 preserveAspectRatio="xMidYMid meet">

<g transform="translate(0.000000,500.000000) scale(0.100000,-0.100000)"
fill="#000000" stroke="none">
<path d="M1620 3005 l0 -85 90 0 c54 0 90 -4 90 -10 0 -6 -46 -137 -102 -293
-95 -261 -102 -288 -106 -369 l-4 -88 201 0 201 0 0 85 0 85 -100 0 c-55 0
-100 3 -100 7 0 3 47 135 105 293 103 282 105 288 105 373 l0 87 -190 0 -190
0 0 -85z"/>
<path d="M2620 3005 l0 -85 -30 0 -30 0 0 -70 0 -70 30 0 30 0 0 -275 c0 -311
3 -324 66 -345 35 -12 143 -8 165 6 5 3 9 32 9 64 0 57 -1 59 -27 62 l-28 3
-3 243 -2 242 30 0 30 0 0 70 0 70 -30 0 -30 0 0 85 0 85 -90 0 -90 0 0 -85z"/>
<path d="M2920 2625 l0 -465 95 0 95 0 2 316 c3 313 3 317 25 331 19 13 24 12
42 -6 20 -20 21 -31 21 -331 l0 -310 95 0 96 0 -3 338 c-3 314 -4 340 -23 376
-24 48 -59 75 -107 82 -52 9 -86 -2 -120 -38 l-28 -30 0 101 0 101 -95 0 -95
0 0 -465z"/>
<path d="M2197 2947 c-48 -15 -102 -59 -124 -100 -16 -28 -18 -62 -18 -277 0
-263 5 -294 52 -351 34 -40 70 -57 135 -65 85 -10 166 11 209 55 43 42 59 91
62 188 l2 68 -92 3 -93 3 0 -66 c0 -78 -12 -105 -45 -105 -36 0 -45 28 -45
139 l0 101 135 0 135 0 6 26 c4 14 5 74 2 133 -5 135 -30 193 -96 229 -51 28
-167 38 -225 19z m117 -149 c11 -15 16 -46 16 -95 l0 -73 -45 0 -45 0 0 73 c0
75 16 117 45 117 8 0 21 -10 29 -22z"/>
</g>
</svg>
